<svg xmlns="http://www.w3.org/2000/svg" width="20" height="20" viewBox="0 0 20 20">
    <path fill="none" fill-rule="evenodd" stroke="#000" d="M17.225 17h2.525-2.525zm2.275.5l.5-.5h-.25.25l-.5-.5v.5h.25-2.525H19.5zM0 17l.5.5V17h4.775H.25.5v-.5L0 17zm19.5-6.5l.5-.5h-.25.25l-.5-.5v.5h.25-5.025H19.5zM.5 10v-.5L0 10h.25H0l.5.5V10h2.275H.5zm0 0v-.5L0 10h.25H0l.5.5V10h2.275H.5zm10.04-7.4l-.081.4h-.205.205l.081.4a2 2 0 0 0 3.92 0l.081-.4h.205-.205l-.081-.4a2 2 0 0 0-3.92 0zm8.96.9V3h-2.275 2.525-.25z" opacity=".7"/>
</svg>
