<svg xmlns="http://www.w3.org/2000/svg" width="20" height="20" viewBox="0 0 20 20">
    <path fill="#000" fill-rule="evenodd" d="M12.157 3.339a7.003 7.003 0 0 1-.098 13.353v-1.055a6.002 6.002 0 0 0 .09-11.24l-.004.565a.28.28 0 0 1-.456.216L10.28 4.04a.28.28 0 0 1 0-.435l1.426-1.158a.28.28 0 0 1 .457.22l-.005.672zm-4.53 13.249a7.003 7.003 0 0 1 .314-13.28v1.055a6.002 6.002 0 0 0-.306 11.153l.004-.58a.28.28 0 0 1 .456-.216l1.41 1.138a.28.28 0 0 1 0 .435L8.08 17.451a.28.28 0 0 1-.456-.22l.004-.643z"/>
</svg>
