<?xml version="1.0" encoding="UTF-8"?>
<svg width="20px" height="20px" viewBox="0 0 20 20" version="1.1" xmlns="http://www.w3.org/2000/svg" xmlns:xlink="http://www.w3.org/1999/xlink">
    <!-- Generator: Sketch 47.1 (45422) - http://www.bohemiancoding.com/sketch -->
    <title>ic/condition/normal-test</title>
    <desc>Created with Sketch.</desc>
    <defs>
        <circle id="path-1" cx="12.5" cy="3.5" r="2.5"></circle>
        <circle id="path-2" cx="7.5" cy="10" r="2.5"></circle>
        <circle id="path-3" cx="12.5" cy="17" r="2.5"></circle>
    </defs>
    <g id="Symbols" stroke="none" stroke-width="1" fill="none" fill-rule="evenodd">
        <g id="ic/condition/normal-test">
            <path d="M3,0.5 L3.5,0.5 L3,0 L3,0.5 Z M3,0.5 L3,0 L2.5,0.5 L3,0.5 Z M3,19.5 L2.5,19.5 L3,20 L3,19.5 Z M3,19.5 L3,0.5 L3,20 L3.5,19.5 L3,19.5 Z M10,0.5 L10.5,0.5 L10,0 L10,0.5 Z M10,0.5 L10,0 L9.5,0.5 L10,0.5 Z M10,19.5 L9.5,19.5 L10,20 L10,19.5 Z M10,19.5 L10,0.5 L10,20 L10.5,19.5 L10,19.5 Z M17,0.5 L17.5,0.5 L17,0 L17,0.5 Z M17,0.5 L17,0 L16.5,0.5 L17,0.5 Z M17,19.5 L16.5,19.5 L17,20 L17,19.5 Z M17,19.5 L17,0.5 L17,20 L17.5,19.5 L17,19.5 Z" id="ic/condition/normal" stroke="#000000" opacity="0.699999988" transform="translate(10.000000, 10.000000) rotate(90.000000) translate(-10.000000, -10.000000) "></path>
            <g id="Oval">
                <use fill="#FFFFFF" fill-rule="evenodd" xlink:href="#path-1"></use>
                <circle stroke="#4C4C4C" stroke-width="1" cx="12.5" cy="3.5" r="2"></circle>
            </g>
            <g id="Oval-Copy">
                <use fill="#FFFFFF" fill-rule="evenodd" xlink:href="#path-2"></use>
                <circle stroke="#4A4A4A" stroke-width="1" cx="7.5" cy="10" r="2"></circle>
            </g>
            <g id="Oval-Copy-2">
                <use fill="#FFFFFF" fill-rule="evenodd" xlink:href="#path-3"></use>
                <circle stroke="#4A4A4A" stroke-width="1" cx="12.5" cy="17" r="2"></circle>
            </g>
        </g>
    </g>
</svg>